<svg id="Camada_2" data-name="Camada 2" xmlns="http://www.w3.org/2000/svg" viewBox="0 0 85.8 107.2"><defs><style>.cls-1{fill:#1e0000;}.cls-2,.cls-4,.cls-5{fill:#fff;}.cls-3{fill:none;stroke:#f9f9f9;}.cls-3,.cls-5{stroke-miterlimit:10;}.cls-4{font-size:12px;font-family:Consolas;}.cls-5{stroke:#fff;}</style></defs><title>logo</title><text/><path class="cls-1" d="M32.4,33.4" transform="translate(0 0)"/><path class="cls-2" d="M15.7,65.6a21.2,21.2,0,0,1,7.5-6,19.8,19.8,0,0,1,9.9-2,30.7,30.7,0,0,1,9.6,2.3,61.5,61.5,0,0,1,8.5,4.3l.4.2a6.2,6.2,0,0,0,1.9,1.2,6.1,6.1,0,0,0,2.4.7,13.1,13.1,0,0,0,2.8,0l3-.5a9.6,9.6,0,0,1-2.5,2,8.1,8.1,0,0,1-3,1.3,11,11,0,0,1-3.6.3A11.8,11.8,0,0,1,49,68.2l.3.2-8.6-2.9-2.1-.7-2.1-.7-2.1-.6-2.1-.6a24,24,0,0,0-8.5-1.1A13.6,13.6,0,0,0,15.7,65.6Z" transform="translate(0 0)"/><path class="cls-2" d="M19.1,48.2a3.6,3.6,0,0,0,.3-.7l.3-.5.3-1.1a9.7,9.7,0,0,0,.3-2.3,38.7,38.7,0,0,0-.3-4.8c-.4-3.1-1.2-6.2-1.8-9.3a28.1,28.1,0,0,1-.4-10,18,18,0,0,1,1.5-5,14.2,14.2,0,0,1,2.9-4.3,37.5,37.5,0,0,1,8-5.9A37.8,37.8,0,0,1,39.3.6a16.7,16.7,0,0,1,5-.6h2.4a10.9,10.9,0,0,1,2.5.4,22.3,22.3,0,0,1,4.5,1.8l1.1.6h.3l.2.3a.8.8,0,0,1,.1.4,2,2,0,0,1,.1.7,20.8,20.8,0,0,1,0,2.5v.7h-.9c-.2-.1-.3-.1-.4-.3a.7.7,0,0,1,.2-.9h1.2l.9-.2h1a3.8,3.8,0,0,1,1.2-.1l3.8.9a21.4,21.4,0,0,1,3.8,1.3l1,.6.5.6a2.4,2.4,0,0,1,.3,1.2,2.3,2.3,0,0,1-.6,1.1l-.6.4-.4.2-.3.2a31.4,31.4,0,0,0-5,5.3,23.8,23.8,0,0,0-1.8,3,3.9,3.9,0,0,0-.3,1.4,1,1,0,0,0,.1.8l-2.3,1.7a4.9,4.9,0,0,0-2.3-1.2,18.7,18.7,0,0,0-3.4-.8l-3.4-.7-3.4-.3A16.4,16.4,0,0,0,38,22.4a10.4,10.4,0,0,0-4.9,3.9,15.9,15.9,0,0,0-1.5,2.9,16.7,16.7,0,0,0-.8,3.2c-.5,2.3-.8,4.7-1.4,7.1a13.7,13.7,0,0,1-3.1,6.8,8.3,8.3,0,0,1-3.4,1.9l-1.8.2h-2Zm.3-.2H21l1.7-.4a6.3,6.3,0,0,0,2.6-1.9,12.7,12.7,0,0,0,2.3-6.3c.3-2.4.4-4.7.7-7.2a27.4,27.4,0,0,1,.8-3.7,16.2,16.2,0,0,1,1.7-3.5,12.6,12.6,0,0,1,2.5-3.1,13.6,13.6,0,0,1,3.4-2.1,18.9,18.9,0,0,1,7.7-1.5l3.8.4,1.8.3,1.8.4,3.6,1a7.4,7.4,0,0,1,3.7,2.4l-2.3,1.7a4.1,4.1,0,0,1-.7-2.8,6.3,6.3,0,0,1,.7-2.2A15,15,0,0,1,59,15.8a25.2,25.2,0,0,1,2.7-3,19.9,19.9,0,0,1,3.1-2.5l.5-.3.4-.2h.2c0-.1-.1,0-.1.2V10l-.6-.4L61.9,8.2l-3.6-1c0-.1-.5,0-.7,0H55.1a.7.7,0,0,0,.2-.9c-.1-.2-.2-.3-.4-.3h-.1l-.7.6a19.5,19.5,0,0,0,.2-2.3c0-.4-.1-.8-.1-.6l-1-.7a16.6,16.6,0,0,0-4.3-1.9,14.1,14.1,0,0,0-4.6-.2,17.7,17.7,0,0,0-4.6.7A36.7,36.7,0,0,0,31.3,6a34.8,34.8,0,0,0-7.2,6,15.3,15.3,0,0,0-3.7,7.9,31.5,31.5,0,0,0,0,9.2,74.1,74.1,0,0,1,1.2,9.6,41.9,41.9,0,0,1-.3,5,10.5,10.5,0,0,1-.6,2.4l-.6,1.1-.3.5Z" transform="translate(0 0)"/><path class="cls-2" d="M30.2,49.2a12,12,0,0,0,.4-4.2L30,40.7a17.5,17.5,0,0,1-.4-4.6,14.2,14.2,0,0,1,1.2-4.6,11.9,11.9,0,0,1,2.7-3.9,34.7,34.7,0,0,1,3.7-3,19.9,19.9,0,0,1,8.9-2.9A13.5,13.5,0,0,1,51,22a17.2,17.2,0,0,1,4.4,1.9,19,19,0,0,1,6.8,6.4,15.1,15.1,0,0,1,1.2,2,20,20,0,0,1,1,2.1,26.5,26.5,0,0,1,1.8,4.2,20.7,20.7,0,0,1,1.1,4.6,8.3,8.3,0,0,1-.1,2.7,5.9,5.9,0,0,1-1.5,2.8l-1.2,1.1-1.2-1.1a31.5,31.5,0,0,1-2.5-2.8l-2.2-2.4-1.2-.9a5.7,5.7,0,0,0-1.3-.8l-3.2-1.3-1.6-.7-.7-.3h.3l.2-.4c0-.2-.1-.3-.1-.2s-.2.4-.2.7v1c0,.3.1.6.1.9a3.7,3.7,0,0,0,.7,1.6,1.7,1.7,0,0,0,1.7.6,4.4,4.4,0,0,1,1.5-.2l1.6.2,1.2.2.2,1.3a3.7,3.7,0,0,0,.1,1.1,3.6,3.6,0,0,0,.2,1,22.1,22.1,0,0,1,.5,2.5c.2,1.6.3,3.2.6,4.6a14.6,14.6,0,0,0,.7,1.9,10.6,10.6,0,0,0,1,1.7,12.2,12.2,0,0,0,1.5,1.7l1.6,2,3.4,4.4L62.3,64l-2.1-.7-1-.4h0l.6-.2H60c.1,0-.2.2-.5.2a1.4,1.4,0,0,1-.7,0h-.3l-.5-.3-4.1-1.7-4.1-1.7-2.1-.8-2.1-1a33,33,0,0,1-3.9-2.6c-1.2-.9-2.3-1.9-3.5-2.7a15.4,15.4,0,0,0-3.7-2.3A8.8,8.8,0,0,0,30.2,49.2Zm0,0a10.1,10.1,0,0,1,4.6-.2A15.4,15.4,0,0,1,39,50.7L42.9,53a23,23,0,0,0,3.9,1.7l2,.8,2.1.8L55,58l4.2,1.6.4.2h-.8c-.3,0-.6.3-.5.2s0,0,.2-.1l.6-.2h1l1.1.3,2.1.7-1.8,2.6L60,61.8l-1.7-1.9a18.2,18.2,0,0,1-1.5-2.3,14.3,14.3,0,0,1-.9-2.7,29.7,29.7,0,0,1-.6-4.9L55,47.8a6.8,6.8,0,0,1-.2-1.4V45.1l1.3,1.5-1.9-.4a2.6,2.6,0,0,1-1.6-1.5c-.4-.7-.6-1.4-.9-1.8s-.6-1-1-1.5a2.2,2.2,0,0,0-.5-.8l-.7-.5a11.5,11.5,0,0,1-.8-1,1.4,1.4,0,0,1,0-1.1,3,3,0,0,1,.7-1.1l.4-.2h1.6l1,.4,1.6.6,3.4,1.3a15.1,15.1,0,0,1,1.8.9L60.8,41l2.6,2.7a28.4,28.4,0,0,0,2.3,2.5H63.3a3.3,3.3,0,0,0,.5-2.7,13.9,13.9,0,0,0-.9-3.8,32,32,0,0,0-1.6-3.9l-.9-1.9a9.5,9.5,0,0,0-1-1.7,17.6,17.6,0,0,0-5.6-5.6,16.1,16.1,0,0,0-3.6-1.5,12,12,0,0,0-3.8-.3,15.8,15.8,0,0,0-7.6,2.4,14.8,14.8,0,0,0-3.1,2.5l-1.3,1.5a9.1,9.1,0,0,0-1.1,1.6,9.5,9.5,0,0,0-1.5,3.6,18.9,18.9,0,0,0-.3,4.2c-.1,1.4,0,2.9-.1,4.4A12.6,12.6,0,0,1,30.2,49.2Z" transform="translate(0 0)"/><path class="cls-3" d="M50.9,38.7l1.5.5" transform="translate(0 0)"/><text class="cls-4" transform="translate(0 82)">Gladius Store</text><path class="cls-5" d="M29.6,6.7a89.9,89.9,0,0,1,8.5-3.1c3.4-1.1,6.4-2,9.7-1.2s6.5,3.8,7.1,3.2-.8-1.8-1.3-2.5S51,1.3,47.3,1.2,38.6.9,34.2,3.5Z" transform="translate(0 0)"/><path class="cls-5" d="M55.8,6.3c-.2-.2-2.5-1.6-2.6-1-.1,2.3-.5,10.8-.5,10.8h0c.1-.6.9-4.4,5.8-9l-.4-.2" transform="translate(0 0)"/></svg>