<?xml version="1.0" encoding="utf-8"?>
<!-- Generator: Adobe Illustrator 21.0.0, SVG Export Plug-In . SVG Version: 6.00 Build 0)  -->
<svg version="1.1" id="Camada_2" xmlns="http://www.w3.org/2000/svg" xmlns:xlink="http://www.w3.org/1999/xlink" x="0px" y="0px"
	 viewBox="0 0 1024 1024" style="enable-background:new 0 0 1024 1024;" xml:space="preserve">
<style type="text/css">
	.st0{fill:#6D109E;}
	.st1{fill:#360954;}
	.st2{font-family:'CenturyGothic-Bold';}
	.st3{font-size:89.888px;}
</style>
<g>
	<path class="st0" d="M453.5,566.6h-5.9c-6.5,0-11.9-5.4-11.9-11.9V542c0-6.5,5.4-11.9,11.9-11.9h5.9c6.5,0,11.9,5.4,11.9,11.9v12.7
		C465.4,561.3,460,566.6,453.5,566.6z"/>
	<path class="st1" d="M493.8,566.6h-5.9c-6.5,0-11.9-5.4-11.9-11.9v-25.6c0-6.5,5.4-11.9,11.9-11.9h5.9c6.5,0,11.9,5.4,11.9,11.9
		v25.6C505.6,561.3,500.3,566.6,493.8,566.6z"/>
	<path class="st1" d="M573.6,566.6h-5.9c-6.5,0-11.9-5.4-11.9-11.9v-84.8c0-6.5,5.4-11.9,11.9-11.9h5.9c6.5,0,11.9,5.4,11.9,11.9
		v84.8C585.5,561.3,580.1,566.6,573.6,566.6z"/>
	<path class="st0" d="M533.3,566.6h-5.9c-6.5,0-11.9-5.4-11.9-11.9v-49.5c0-6.5,5.4-11.9,11.9-11.9h5.9c6.5,0,11.9,5.4,11.9,11.9
		v49.5C545.2,561.3,539.9,566.6,533.3,566.6z"/>
	<path class="st1" d="M436.2,523.5l-0.7-2.7c0.2-0.1,22-5.8,48.9-19.1c24.8-12.3,59-33.7,81.6-66l2.3,1.6
		c-10.1,14.5-23.4,28.1-39.4,40.4c-12.8,9.8-27.4,18.7-43.3,26.6C458.5,517.6,436.4,523.4,436.2,523.5z"/>
	<polygon class="st1" points="579,443.3 567,436.7 555,430 566.7,422.9 578.5,415.8 578.7,429.6 	"/>
	<text transform="matrix(1 0 0 1 451.813 487.4482)" class="st0 st2 st3">$</text>
</g>
</svg>
