<?xml version="1.0" encoding="utf-8"?>
<!-- Generator: Adobe Illustrator 21.0.0, SVG Export Plug-In . SVG Version: 6.00 Build 0)  -->
<svg version="1.1" id="Camada_2" xmlns="http://www.w3.org/2000/svg" xmlns:xlink="http://www.w3.org/1999/xlink" x="0px" y="0px"
	 viewBox="0 0 1280 1024" style="enable-background:new 0 0 1280 1024;" xml:space="preserve">
<style type="text/css">
	.st0{fill:none;stroke:#000000;stroke-miterlimit:10;}
	.st1{fill:#6D109E;}
	.st2{fill:#FFFFFF;}
	.st3{fill:#360954;}
</style>
<g>
	<path class="st0" d="M615.5,577.4"/>
	<path class="st1" d="M713.9,501.1c0,42.1-33.6,76.3-75,76.3c-12.5,0-24.3-3.1-34.6-8.6c-24-12.7-40.4-38.3-40.4-67.7
		c0-42.1,33.6-76.3,75-76.3S713.9,459,713.9,501.1z"/>
	<path class="st1" d="M601.9,565.1c0.9,1.4,2.6,2.7,3.8,3.6c3.4,2.6,7.4,4.5,10.9,7c3.7,2.8,6.7,6.8,8.8,10.9
		c2.8,5.2,4.2,11,6.9,16.3c2.3,4.4,7.6,6.7,12.2,3.9c3.1-1.9,4-5.8,4.9-9.3c1.3-4.9,3.1-9.7,5.8-14c2.2-3.4,5-6.4,8.4-8.6
		c3.5-2.3,7.3-4,10.1-7.3c0.8-0.9,1.7-1.8,2.7-2.6c-0.9,0.7-3.2,0.8-4.3,1.2c-1.7,0.7-3.4,1.5-5.1,2.3c-3.1,1.3-6.3,2.3-9.6,3.2
		c-6.9,1.8-13.9,2.8-21,2.8c-10.1,0-20.3-2.1-29.2-7c-1.8-1-3.7-2.2-5.7-2.8C601.7,564.8,601.8,564.9,601.9,565.1z"/>
	<circle class="st2" cx="639.6" cy="500.6" r="42.3"/>
	<circle class="st3" cx="639" cy="501.1" r="20.5"/>
	<circle class="st2" cx="650.4" cy="489.3" r="10.8"/>
</g>
</svg>
